<mxfile host="65bd71144e">
    <diagram id="_DsXDU_POifldQYeKclz" name="PÃ¡gina-1">
        <mxGraphModel dx="434" dy="306" grid="1" gridSize="10" guides="1" tooltips="1" connect="1" arrows="1" fold="1" page="1" pageScale="1" pageWidth="827" pageHeight="1169" math="0" shadow="0">
            <root>
                <mxCell id="0"/>
                <mxCell id="1" parent="0"/>
                <mxCell id="13" value="" style="edgeStyle=none;html=1;" edge="1" parent="1" source="2" target="3">
                    <mxGeometry relative="1" as="geometry"/>
                </mxCell>
                <mxCell id="2" value="INICIO&amp;nbsp;" style="ellipse;whiteSpace=wrap;html=1;fillColor=#a20025;fontColor=#ffffff;strokeColor=#6F0000;" vertex="1" parent="1">
                    <mxGeometry x="160" y="120" width="120" height="80" as="geometry"/>
                </mxCell>
                <mxCell id="12" value="" style="edgeStyle=none;html=1;" edge="1" parent="1" source="3" target="4">
                    <mxGeometry relative="1" as="geometry"/>
                </mxCell>
                <mxCell id="3" value="n" style="shape=parallelogram;perimeter=parallelogramPerimeter;whiteSpace=wrap;html=1;fixedSize=1;fillColor=#60a917;fontColor=#ffffff;strokeColor=#2D7600;" vertex="1" parent="1">
                    <mxGeometry x="160" y="230" width="120" height="60" as="geometry"/>
                </mxCell>
                <mxCell id="8" value="" style="edgeStyle=none;html=1;" edge="1" parent="1" source="4" target="5">
                    <mxGeometry relative="1" as="geometry"/>
                </mxCell>
                <mxCell id="4" value="&lt;div style=&quot;font-family: &amp;quot;Droid Sans Mono&amp;quot;, &amp;quot;monospace&amp;quot;, monospace; font-size: 14px; line-height: 19px;&quot;&gt;&lt;div style=&quot;&quot;&gt;d1 &lt;span style=&quot;color: rgb(255, 106, 56);&quot;&gt;=&lt;/span&gt; ((n&lt;span style=&quot;color: rgb(255, 106, 56);&quot;&gt;%&lt;/span&gt;&lt;span style=&quot;color: rgb(188, 212, 42);&quot;&gt;10&lt;/span&gt;)&lt;span style=&quot;color: rgb(255, 106, 56);&quot;&gt;*&lt;/span&gt;&lt;span style=&quot;color: rgb(188, 212, 42);&quot;&gt;1000&lt;/span&gt;)&lt;/div&gt;&lt;div style=&quot;&quot;&gt;pe &lt;span style=&quot;color: #ff6a38;&quot;&gt;=&lt;/span&gt; (n&lt;span style=&quot;color: #ff6a38;&quot;&gt;//&lt;/span&gt;&lt;span style=&quot;color: #bcd42a;&quot;&gt;10&lt;/span&gt;)&lt;/div&gt;&lt;div style=&quot;&quot;&gt;d2 &lt;span style=&quot;color: #ff6a38;&quot;&gt;=&lt;/span&gt; ((pe&lt;span style=&quot;color: #ff6a38;&quot;&gt;%&lt;/span&gt;&lt;span style=&quot;color: #bcd42a;&quot;&gt;10&lt;/span&gt;)&lt;span style=&quot;color: #ff6a38;&quot;&gt;*&lt;/span&gt;&lt;span style=&quot;color: #bcd42a;&quot;&gt;100&lt;/span&gt;)&lt;/div&gt;&lt;div style=&quot;&quot;&gt;pe &lt;span style=&quot;color: #ff6a38;&quot;&gt;=&lt;/span&gt; (pe&lt;span style=&quot;color: #ff6a38;&quot;&gt;//&lt;/span&gt;&lt;span style=&quot;color: #bcd42a;&quot;&gt;10&lt;/span&gt;)&lt;/div&gt;&lt;div style=&quot;&quot;&gt;d3 &lt;span style=&quot;color: #ff6a38;&quot;&gt;=&lt;/span&gt; ((pe&lt;span style=&quot;color: #ff6a38;&quot;&gt;%&lt;/span&gt;&lt;span style=&quot;color: #bcd42a;&quot;&gt;10&lt;/span&gt;)&lt;span style=&quot;color: #ff6a38;&quot;&gt;*&lt;/span&gt;&lt;span style=&quot;color: #bcd42a;&quot;&gt;10&lt;/span&gt;)&lt;/div&gt;&lt;div style=&quot;&quot;&gt;d4 &lt;span style=&quot;color: #ff6a38;&quot;&gt;=&lt;/span&gt; (pe&lt;span style=&quot;color: #ff6a38;&quot;&gt;//&lt;/span&gt;&lt;span style=&quot;color: #bcd42a;&quot;&gt;10&lt;/span&gt;)&lt;/div&gt;&lt;div style=&quot;&quot;&gt;ni &lt;span style=&quot;color: rgb(255, 106, 56);&quot;&gt;=&lt;/span&gt; (d1&lt;span style=&quot;color: rgb(255, 106, 56);&quot;&gt;+&lt;/span&gt;d2&lt;span style=&quot;color: rgb(255, 106, 56);&quot;&gt;+&lt;/span&gt;d3&lt;span style=&quot;color: rgb(255, 106, 56);&quot;&gt;+&lt;/span&gt;d4)&lt;/div&gt;&lt;/div&gt;" style="rounded=0;whiteSpace=wrap;html=1;fillColor=#60a917;fontColor=#ffffff;strokeColor=#2D7600;" vertex="1" parent="1">
                    <mxGeometry x="80" y="320" width="270" height="160" as="geometry"/>
                </mxCell>
                <mxCell id="7" value="" style="edgeStyle=none;html=1;" edge="1" parent="1" source="5" target="6">
                    <mxGeometry relative="1" as="geometry"/>
                </mxCell>
                <mxCell id="5" value="ni" style="shape=document;whiteSpace=wrap;html=1;boundedLbl=1;labelBackgroundColor=none;fillColor=#1ba1e2;fontColor=#ffffff;strokeColor=#006EAF;" vertex="1" parent="1">
                    <mxGeometry x="155" y="530" width="120" height="80" as="geometry"/>
                </mxCell>
                <mxCell id="6" value="FINAL&amp;nbsp;" style="ellipse;whiteSpace=wrap;html=1;labelBackgroundColor=none;fillColor=#6a00ff;fontColor=#ffffff;strokeColor=#3700CC;" vertex="1" parent="1">
                    <mxGeometry x="155" y="650" width="120" height="80" as="geometry"/>
                </mxCell>
            </root>
        </mxGraphModel>
    </diagram>
</mxfile>